{
  "accessors": [
    {
      "bufferView": 2,
      "componentType": 5126,
      "count": 3726,
      "max": [
        0.9900283813476563,
        2.980966806411743,
        4.028146266937256
      ],
      "min": [
        -0.9900285601615906,
        1.0814309120178223,
        1.5088019371032715
      ],
      "type": "VEC3"
    },
    {
      "bufferView": 2,
      "byteOffset": 44712,
      "componentType": 5126,
      "count": 3726,
      "max": [
        0.9999997019767761,
        1.0,
        0.9999996423721313
      ],
      "min": [
        -0.9999997019767761,
        -1.0,
        -0.9999996423721313
      ],
      "type": "VEC3"
    },
    {
      "bufferView": 3,
      "componentType": 5126,
      "count": 3726,
      "max": [
        0.0,
        0.0,
        0.0,
        1.0
      ],
      "min": [
        0.0,
        0.0,
        0.0,
        0.0
      ],
      "type": "VEC4"
    },
    {
      "bufferView": 1,
      "componentType": 5126,
      "count": 3726,
      "max": [
        1.0,
        1.0
      ],
      "min": [
        -9.174379034249114e-10,
        -7.450580596923828e-08
      ],
      "type": "VEC2"
    },
    {
      "bufferView": 0,
      "componentType": 5125,
      "count": 16302,
      "type": "SCALAR"
    }
  ],
  "asset": {
    "extras": {
      "author": "KaiserNeck (https://sketchfab.com/KaiserNeck)",
      "license": "CC-BY-4.0 (http://creativecommons.org/licenses/by/4.0/)",
      "source": "https://sketchfab.com/3d-models/another-cofee-cup-low-poly-xd-1d1c41eb034c40cba87167b6131da307",
      "title": "Another Cofee Cup LOW POLY? XD"
    },
    "generator": "Sketchfab-13.74.0",
    "version": "2.0"
  },
  "bufferViews": [
    {
      "buffer": 0,
      "byteLength": 65208,
      "name": "floatBufferViews",
      "target": 34963
    },
    {
      "buffer": 0,
      "byteLength": 29808,
      "byteOffset": 65208,
      "byteStride": 8,
      "name": "floatBufferViews",
      "target": 34962
    },
    {
      "buffer": 0,
      "byteLength": 89424,
      "byteOffset": 95016,
      "byteStride": 12,
      "name": "floatBufferViews",
      "target": 34962
    },
    {
      "buffer": 0,
      "byteLength": 59616,
      "byteOffset": 184440,
      "byteStride": 16,
      "name": "floatBufferViews",
      "target": 34962
    }
  ],
  "buffers": [
    {
      "byteLength": 244056,
      "uri": "scene.bin"
    }
  ],
  "extensionsRequired": [
    "KHR_materials_pbrSpecularGlossiness"
  ],
  "extensionsUsed": [
    "KHR_materials_pbrSpecularGlossiness"
  ],
  "materials": [
    {
      "doubleSided": true,
      "extensions": {
        "KHR_materials_pbrSpecularGlossiness": {
          "diffuseFactor": [
            1.0,
            1.0,
            1.0,
            1.0
          ],
          "glossinessFactor": 0.3310455803293877,
          "specularFactor": [
            0.2118101693262303,
            0.2118101693262303,
            0.2118101693262303
          ]
        }
      },
      "name": "blinn1"
    }
  ],
  "meshes": [
    {
      "name": "polySurface2_blinn1_0",
      "primitives": [
        {
          "attributes": {
            "COLOR_0": 2,
            "NORMAL": 1,
            "POSITION": 0,
            "TEXCOORD_0": 3
          },
          "indices": 4,
          "material": 0,
          "mode": 4
        }
      ]
    }
  ],
  "nodes": [
    {
      "children": [
        1
      ],
      "matrix": [
        1.0,
        0.0,
        0.0,
        0.0,
        0.0,
        2.220446049250313e-16,
        -1.0,
        0.0,
        0.0,
        1.0,
        2.220446049250313e-16,
        0.0,
        0.0,
        0.0,
        0.0,
        1.0
      ],
      "name": "Sketchfab_model"
    },
    {
      "children": [
        2
      ],
      "matrix": [
        0.009999999776482582,
        0.0,
        0.0,
        0.0,
        0.0,
        0.0,
        0.009999999776482582,
        0.0,
        0.0,
        -0.009999999776482582,
        0.0,
        0.0,
        0.0,
        0.0,
        0.0,
        1.0
      ],
      "name": "009d24c328a34466aa0233bfc15ba83c.fbx"
    },
    {
      "children": [
        3
      ],
      "name": "RootNode"
    },
    {
      "children": [
        4
      ],
      "name": "polySurface2"
    },
    {
      "mesh": 0,
      "name": "polySurface2_blinn1_0"
    }
  ],
  "scene": 0,
  "scenes": [
    {
      "name": "Sketchfab_Scene",
      "nodes": [
        0
      ]
    }
  ]
}
