{
  "accessors": [
    {
      "bufferView": 2,
      "componentType": 5126,
      "count": 16150,
      "max": [
        1.0,
        16.678409576416016,
        1.0
      ],
      "min": [
        -1.0,
        -1.0,
        -1.0
      ],
      "type": "VEC3"
    },
    {
      "bufferView": 2,
      "byteOffset": 193800,
      "componentType": 5126,
      "count": 16150,
      "max": [
        0.9999852180480957,
        0.4120652973651886,
        1.0
      ],
      "min": [
        -1.0,
        -0.5062563419342041,
        -1.0
      ],
      "type": "VEC3"
    },
    {
      "bufferView": 1,
      "componentType": 5126,
      "count": 16150,
      "max": [
        1.0,
        1.0
      ],
      "min": [
        0.0,
        0.0
      ],
      "type": "VEC2"
    },
    {
      "bufferView": 0,
      "componentType": 5125,
      "count": 32460,
      "type": "SCALAR"
    },
    {
      "bufferView": 2,
      "byteOffset": 387600,
      "componentType": 5126,
      "count": 65532,
      "max": [
        3.133877754211426,
        0.6457447409629822,
        0.35875555872917175
      ],
      "min": [
        -36.65176010131836,
        -10.808425903320313,
        -61.46997833251953
      ],
      "type": "VEC3"
    },
    {
      "bufferView": 2,
      "byteOffset": 1173984,
      "componentType": 5126,
      "count": 65532,
      "max": [
        0.9935294985771179,
        0.9928280711174011,
        0.9747776389122009
      ],
      "min": [
        -0.9993765354156494,
        -0.9995868802070618,
        -0.99958735704422
      ],
      "type": "VEC3"
    },
    {
      "bufferView": 1,
      "byteOffset": 129200,
      "componentType": 5126,
      "count": 65532,
      "max": [
        17.0,
        0.5635143518447876
      ],
      "min": [
        0.0,
        -0.4232313334941864
      ],
      "type": "VEC2"
    },
    {
      "bufferView": 0,
      "byteOffset": 129840,
      "componentType": 5125,
      "count": 98298,
      "type": "SCALAR"
    },
    {
      "bufferView": 2,
      "byteOffset": 1960368,
      "componentType": 5126,
      "count": 65532,
      "max": [
        3.0270843505859375,
        0.3722149133682251,
        0.6457445621490479
      ],
      "min": [
        -36.624855041503906,
        -10.663629531860352,
        -61.42082977294922
      ],
      "type": "VEC3"
    },
    {
      "bufferView": 2,
      "byteOffset": 2746752,
      "componentType": 5126,
      "count": 65532,
      "max": [
        0.9969805479049683,
        0.9989267587661743,
        0.9998742341995239
      ],
      "min": [
        -0.9972783327102661,
        -0.9919265508651733,
        -0.9993381500244141
      ],
      "type": "VEC3"
    },
    {
      "bufferView": 1,
      "byteOffset": 653456,
      "componentType": 5126,
      "count": 65532,
      "max": [
        17.0,
        0.5458532571792603
      ],
      "min": [
        0.0,
        -0.563513994216919
      ],
      "type": "VEC2"
    },
    {
      "bufferView": 0,
      "byteOffset": 523032,
      "componentType": 5125,
      "count": 98298,
      "type": "SCALAR"
    },
    {
      "bufferView": 2,
      "byteOffset": 3533136,
      "componentType": 5126,
      "count": 8200,
      "max": [
        3.121458053588867,
        0.5410044193267822,
        0.5369165539741516
      ],
      "min": [
        -36.247257232666016,
        -10.593276977539063,
        -60.36762237548828
      ],
      "type": "VEC3"
    },
    {
      "bufferView": 2,
      "byteOffset": 3631536,
      "componentType": 5126,
      "count": 8200,
      "max": [
        0.9457796216011047,
        0.7092768549919128,
        0.9992945194244385
      ],
      "min": [
        -0.22548258304595947,
        -0.6287731528282166,
        0.3204004466533661
      ],
      "type": "VEC3"
    },
    {
      "bufferView": 1,
      "byteOffset": 1177712,
      "componentType": 5126,
      "count": 8200,
      "max": [
        17.0,
        -0.34219416975975037
      ],
      "min": [
        0.0,
        -0.5340227484703064
      ],
      "type": "VEC2"
    },
    {
      "bufferView": 0,
      "byteOffset": 916224,
      "componentType": 5125,
      "count": 12300,
      "type": "SCALAR"
    },
    {
      "bufferView": 2,
      "byteOffset": 3729936,
      "componentType": 5126,
      "count": 64,
      "max": [
        1.0,
        0.011253342032432556,
        0.9986482262611389
      ],
      "min": [
        -209.50021362304688,
        0.0,
        -1.0013517141342163
      ],
      "type": "VEC3"
    },
    {
      "bufferView": 2,
      "byteOffset": 3730704,
      "componentType": 5126,
      "count": 64,
      "max": [
        0.0,
        1.0,
        0.0010795097332447767
      ],
      "min": [
        0.0,
        0.9999948740005493,
        -0.003223962849006057
      ],
      "type": "VEC3"
    },
    {
      "bufferView": 1,
      "byteOffset": 1243312,
      "componentType": 5126,
      "count": 64,
      "max": [
        1.0,
        1.0
      ],
      "min": [
        0.0,
        0.0
      ],
      "type": "VEC2"
    },
    {
      "bufferView": 0,
      "byteOffset": 965424,
      "componentType": 5125,
      "count": 96,
      "type": "SCALAR"
    },
    {
      "bufferView": 2,
      "byteOffset": 3731472,
      "componentType": 5126,
      "count": 24,
      "max": [
        0.3333333134651184,
        32.535377502441406,
        0.3333333134651184
      ],
      "min": [
        -0.3333333134651184,
        0.0,
        -0.3333333134651184
      ],
      "type": "VEC3"
    },
    {
      "bufferView": 2,
      "byteOffset": 3731760,
      "componentType": 5126,
      "count": 24,
      "max": [
        0.995408833026886,
        1.0,
        0.995408833026886
      ],
      "min": [
        -0.995408833026886,
        -1.0,
        -0.995408833026886
      ],
      "type": "VEC3"
    },
    {
      "bufferView": 1,
      "byteOffset": 1243824,
      "componentType": 5126,
      "count": 24,
      "max": [
        0.6666666269302368,
        0.6666666865348816
      ],
      "min": [
        0.3333333134651184,
        0.3333333432674408
      ],
      "type": "VEC2"
    },
    {
      "bufferView": 0,
      "byteOffset": 965808,
      "componentType": 5125,
      "count": 36,
      "type": "SCALAR"
    },
    {
      "bufferView": 2,
      "byteOffset": 3732048,
      "componentType": 5126,
      "count": 48,
      "max": [
        1.0,
        28.722064971923828,
        1.0
      ],
      "min": [
        -1.0,
        0.0,
        -1.0
      ],
      "type": "VEC3"
    },
    {
      "bufferView": 2,
      "byteOffset": 3732624,
      "componentType": 5126,
      "count": 48,
      "max": [
        1.0,
        0.0,
        1.0
      ],
      "min": [
        -1.0,
        0.0,
        -1.0
      ],
      "type": "VEC3"
    },
    {
      "bufferView": 1,
      "byteOffset": 1244016,
      "componentType": 5126,
      "count": 48,
      "max": [
        1.0,
        1.0
      ],
      "min": [
        0.0,
        0.0
      ],
      "type": "VEC2"
    },
    {
      "bufferView": 0,
      "byteOffset": 965952,
      "componentType": 5125,
      "count": 72,
      "type": "SCALAR"
    },
    {
      "bufferView": 2,
      "byteOffset": 3733200,
      "componentType": 5126,
      "count": 64,
      "max": [
        1.0,
        31.491506576538086,
        1.0
      ],
      "min": [
        -1.0,
        0.0,
        -1.0
      ],
      "type": "VEC3"
    },
    {
      "bufferView": 2,
      "byteOffset": 3733968,
      "componentType": 5126,
      "count": 64,
      "max": [
        0.9608138799667358,
        0.2771948575973511,
        0.9608137607574463
      ],
      "min": [
        -0.9608137607574463,
        -1.0,
        -0.9608137607574463
      ],
      "type": "VEC3"
    },
    {
      "bufferView": 1,
      "byteOffset": 1244400,
      "componentType": 5126,
      "count": 64,
      "max": [
        1.0,
        1.0
      ],
      "min": [
        0.0,
        0.0
      ],
      "type": "VEC2"
    },
    {
      "bufferView": 0,
      "byteOffset": 966240,
      "componentType": 5125,
      "count": 96,
      "type": "SCALAR"
    },
    {
      "bufferView": 2,
      "byteOffset": 3734736,
      "componentType": 5126,
      "count": 1414,
      "max": [
        -1.028820276260376,
        27.306474685668945,
        0.2491929829120636
      ],
      "min": [
        -1.0288206338882446,
        23.280078887939453,
        -0.2658804953098297
      ],
      "type": "VEC3"
    },
    {
      "bufferView": 2,
      "byteOffset": 3751704,
      "componentType": 5126,
      "count": 1414,
      "max": [
        1.0,
        1.1283042113063857e-05,
        0.00010092744196299464
      ],
      "min": [
        -1.0,
        -1.6478183169965632e-05,
        -0.00013882455823477358
      ],
      "type": "VEC3"
    },
    {
      "bufferView": 1,
      "byteOffset": 1244912,
      "componentType": 5126,
      "count": 1414,
      "max": [
        1.0,
        0.0
      ],
      "min": [
        0.0,
        0.0
      ],
      "type": "VEC2"
    },
    {
      "bufferView": 0,
      "byteOffset": 966624,
      "componentType": 5125,
      "count": 3345,
      "type": "SCALAR"
    }
  ],
  "asset": {
    "extras": {
      "author": "odessey (https://sketchfab.com/odessey)",
      "license": "CC-BY-4.0 (http://creativecommons.org/licenses/by/4.0/)",
      "source": "https://sketchfab.com/3d-models/pencil-and-notepad-01f2ac903ca44a43be6500c7b71559f9",
      "title": "pencil and notepad"
    },
    "generator": "Sketchfab-12.68.0",
    "version": "2.0"
  },
  "bufferViews": [
    {
      "buffer": 0,
      "byteLength": 980004,
      "name": "floatBufferViews",
      "target": 34963
    },
    {
      "buffer": 0,
      "byteLength": 1256224,
      "byteOffset": 980004,
      "byteStride": 8,
      "name": "floatBufferViews",
      "target": 34962
    },
    {
      "buffer": 0,
      "byteLength": 3768672,
      "byteOffset": 2236228,
      "byteStride": 12,
      "name": "floatBufferViews",
      "target": 34962
    }
  ],
  "buffers": [
    {
      "byteLength": 6004900,
      "uri": "scene.bin"
    }
  ],
  "materials": [
    {
      "doubleSided": true,
      "name": "Material",
      "pbrMetallicRoughness": {
        "baseColorFactor": [
          0.9380567158552676,
          0.9380567158552676,
          0.9380567158552676,
          1.0
        ]
      }
    },
    {
      "doubleSided": true,
      "name": "Material.002"
    },
    {
      "doubleSided": true,
      "name": "Material.001",
      "pbrMetallicRoughness": {
        "baseColorFactor": [
          0.37260061166542024,
          0.37260061166542024,
          0.37260061166542024,
          1.0
        ]
      }
    },
    {
      "doubleSided": true,
      "name": "Material.004",
      "pbrMetallicRoughness": {
        "baseColorFactor": [
          0.0,
          0.0,
          0.0,
          1.0
        ],
        "metallicFactor": 0.0,
        "roughnessFactor": 0.5
      }
    },
    {
      "doubleSided": true,
      "name": "Material.003",
      "pbrMetallicRoughness": {
        "baseColorFactor": [
          0.800656,
          0.260677,
          0.0,
          1.0
        ],
        "metallicFactor": 0.0,
        "roughnessFactor": 0.5
      }
    },
    {
      "doubleSided": true,
      "name": "Material.005",
      "pbrMetallicRoughness": {
        "baseColorFactor": [
          0.570471,
          0.277069,
          0.131879,
          1.0
        ],
        "metallicFactor": 0.0,
        "roughnessFactor": 0.5
      }
    },
    {
      "doubleSided": true,
      "name": "Material.006"
    }
  ],
  "meshes": [
    {
      "name": "Object_0",
      "primitives": [
        {
          "attributes": {
            "NORMAL": 1,
            "POSITION": 0,
            "TEXCOORD_0": 2
          },
          "indices": 3,
          "material": 0,
          "mode": 4
        }
      ]
    },
    {
      "name": "Object_1",
      "primitives": [
        {
          "attributes": {
            "NORMAL": 5,
            "POSITION": 4,
            "TEXCOORD_0": 6
          },
          "indices": 7,
          "material": 1,
          "mode": 4
        }
      ]
    },
    {
      "name": "Object_2",
      "primitives": [
        {
          "attributes": {
            "NORMAL": 9,
            "POSITION": 8,
            "TEXCOORD_0": 10
          },
          "indices": 11,
          "material": 1,
          "mode": 4
        }
      ]
    },
    {
      "name": "Object_3",
      "primitives": [
        {
          "attributes": {
            "NORMAL": 13,
            "POSITION": 12,
            "TEXCOORD_0": 14
          },
          "indices": 15,
          "material": 1,
          "mode": 4
        }
      ]
    },
    {
      "name": "Object_4",
      "primitives": [
        {
          "attributes": {
            "NORMAL": 17,
            "POSITION": 16,
            "TEXCOORD_0": 18
          },
          "indices": 19,
          "material": 2,
          "mode": 4
        }
      ]
    },
    {
      "name": "Object_5",
      "primitives": [
        {
          "attributes": {
            "NORMAL": 21,
            "POSITION": 20,
            "TEXCOORD_0": 22
          },
          "indices": 23,
          "material": 3,
          "mode": 4
        }
      ]
    },
    {
      "name": "Object_6",
      "primitives": [
        {
          "attributes": {
            "NORMAL": 25,
            "POSITION": 24,
            "TEXCOORD_0": 26
          },
          "indices": 27,
          "material": 4,
          "mode": 4
        }
      ]
    },
    {
      "name": "Object_7",
      "primitives": [
        {
          "attributes": {
            "NORMAL": 29,
            "POSITION": 28,
            "TEXCOORD_0": 30
          },
          "indices": 31,
          "material": 5,
          "mode": 4
        }
      ]
    },
    {
      "name": "Object_8",
      "primitives": [
        {
          "attributes": {
            "NORMAL": 33,
            "POSITION": 32,
            "TEXCOORD_0": 34
          },
          "indices": 35,
          "material": 6,
          "mode": 4
        }
      ]
    }
  ],
  "nodes": [
    {
      "children": [
        1
      ],
      "matrix": [
        -2.220446049250313e-16,
        -5.053215392444312e-16,
        1.0,
        0.0,
        1.0,
        -1.6081226229577296e-16,
        2.2204460492503128e-16,
        0.0,
        1.6081226229577292e-16,
        1.0,
        5.053215392444312e-16,
        0.0,
        2.0474448204040527,
        0.0051391050219538595,
        -1.2450281381607056,
        1.0
      ],
      "name": "Sketchfab_model"
    },
    {
      "children": [
        2
      ],
      "name": "root"
    },
    {
      "children": [
        3,
        5,
        9,
        11
      ],
      "matrix": [
        1.0,
        0.0,
        0.0,
        0.0,
        0.0,
        2.220446049250313e-16,
        1.0,
        0.0,
        0.0,
        -1.0,
        2.220446049250313e-16,
        0.0,
        0.0,
        0.0,
        0.0,
        1.0
      ],
      "name": "GLTF_SceneRootNode"
    },
    {
      "children": [
        4
      ],
      "matrix": [
        1.4083435535430908,
        0.0,
        0.0,
        0.0,
        0.0,
        0.006348008755594492,
        0.0,
        0.0,
        0.0,
        0.0,
        1.0,
        0.0,
        1.3820438385009766,
        -0.039863020181655884,
        0.09363627433776855,
        1.0
      ],
      "name": "Cube_0"
    },
    {
      "mesh": 0,
      "name": "Object_4"
    },
    {
      "children": [
        6,
        7,
        8
      ],
      "matrix": [
        0.026272540215753204,
        -0.0006565513445560461,
        -0.014587340289543038,
        0.0,
        -0.0016494000151451845,
        -0.02988199720854257,
        -0.0016257153335537944,
        0.0,
        -0.014601709045827816,
        0.002242215143652348,
        -0.026399337360261926,
        0.0,
        -0.03497567027807236,
        -0.08934402465820313,
        -0.9998316168785095,
        1.0
      ],
      "name": "Circle_3"
    },
    {
      "mesh": 1,
      "name": "Object_6"
    },
    {
      "mesh": 2,
      "name": "Object_7"
    },
    {
      "mesh": 3,
      "name": "Object_8"
    },
    {
      "children": [
        10
      ],
      "matrix": [
        0.010904944501817226,
        0.0,
        0.0,
        0.0,
        0.0,
        0.9736652374267578,
        0.0,
        0.0,
        0.0,
        0.0,
        0.9736652374267578,
        0.0,
        2.5988011360168457,
        0.05664084851741791,
        0.09070706367492676,
        1.0
      ],
      "name": "Plane_4"
    },
    {
      "mesh": 4,
      "name": "Object_10"
    },
    {
      "children": [
        12,
        13,
        14,
        15
      ],
      "matrix": [
        1.9575019383211156e-09,
        -0.06568286567926401,
        -1.9575019966592195e-09,
        0.0,
        -2.496341208203131e-09,
        2.496341133806368e-09,
        -0.0837633088231086,
        0.0,
        0.06568286567926401,
        1.9575019966592195e-09,
        -1.9575019383211156e-09,
        0.0,
        3.370845079421997,
        0.0,
        1.3354980945587158,
        1.0
      ],
      "name": "Plane.001_5"
    },
    {
      "mesh": 5,
      "name": "Object_12"
    },
    {
      "mesh": 6,
      "name": "Object_13"
    },
    {
      "mesh": 7,
      "name": "Object_14"
    },
    {
      "mesh": 8,
      "name": "Object_15"
    }
  ],
  "scene": 0,
  "scenes": [
    {
      "name": "Sketchfab_Scene",
      "nodes": [
        0
      ]
    }
  ]
}
